HIERARCHY
ROOT Hips
{
	OFFSET 0.000000 0.000000 0.000000 
	CHANNELS 6 Xposition Yposition Zposition Zrotation Yrotation Xrotation
	JOINT LeftUpLeg
	{
		OFFSET 1.363060 -1.794630 0.839290 
		CHANNELS 3 Zrotation Yrotation Xrotation
		JOINT LeftLeg
		{
			OFFSET 2.448110 -6.726130 0.000000 
			CHANNELS 3 Zrotation Yrotation Xrotation
			JOINT LeftFoot
			{
				OFFSET 2.562200 -7.039590 0.000000 
				CHANNELS 3 Zrotation Yrotation Xrotation
				JOINT LeftToeBase
				{
					OFFSET 0.157640 -0.433110 2.322550 
					CHANNELS 3 Zrotation Yrotation Xrotation
					End Site
					{
						OFFSET 0.000000 0.000000 0.000000 
					}
				}
			}
		}
	}
	JOINT RightUpLeg
	{
		OFFSET -1.305520 -1.794630 0.839290 
		CHANNELS 3 Zrotation Yrotation Xrotation
		JOINT RightLeg
		{
			OFFSET -2.542530 -6.985550 0.000000 
			CHANNELS 3 Zrotation Yrotation Xrotation
			JOINT RightFoot
			{
				OFFSET -2.568260 -7.056230 0.000000 
				CHANNELS 3 Zrotation Yrotation Xrotation
				JOINT RightToeBase
				{
					OFFSET -0.164730 -0.452590 2.363150 
					CHANNELS 3 Zrotation Yrotation Xrotation
					End Site
					{
						OFFSET 0.000000 0.000000 0.000000 
					}
				}
			}
		}
	}
	JOINT Spine
	{
		OFFSET 0.028270 2.035590 -0.193380 
		CHANNELS 3 Zrotation Yrotation Xrotation
		JOINT Spine1
		{
			OFFSET 0.056720 2.048850 -0.042750 
			CHANNELS 3 Zrotation Yrotation Xrotation
			JOINT Neck1
			{
				OFFSET -0.054170 1.746240 0.172020 
				CHANNELS 3 Zrotation Yrotation Xrotation
				JOINT Head
				{
					OFFSET 0.104070 1.761360 -0.123970 
					CHANNELS 3 Zrotation Yrotation Xrotation
					End Site
					{
						OFFSET 0.000000 0.000000 0.000000 
					}
				}
			}
			JOINT LeftArm
			{
				OFFSET 3.362410 1.200890 -0.311210 
				CHANNELS 3 Zrotation Yrotation Xrotation
				JOINT LeftForeArm
				{
					OFFSET 4.983000 -0.000000 -0.000000 
					CHANNELS 3 Zrotation Yrotation Xrotation
					JOINT LeftHand
					{
						OFFSET 3.483560 -0.000000 -0.000000 
						CHANNELS 3 Zrotation Yrotation Xrotation
						JOINT LeftHandIndex1
						{
							OFFSET 0.715260 -0.000000 -0.000000 
							CHANNELS 3 Zrotation Yrotation Xrotation
							End Site
							{
								OFFSET 0.000000 0.000000 0.000000 
							}
						}
					}
				}
			}
			JOINT RightArm
			{
				OFFSET -3.136600 1.374050 -0.404650 
				CHANNELS 3 Zrotation Yrotation Xrotation
				JOINT RightForeArm
				{
					OFFSET -5.241900 -0.000000 -0.000000 
					CHANNELS 3 Zrotation Yrotation Xrotation
					JOINT RightHand
					{
						OFFSET -3.444170 -0.000000 -0.000000 
						CHANNELS 3 Zrotation Yrotation Xrotation
						JOINT RightHandIndex1
						{
							OFFSET -0.622530 -0.000000 -0.000000 
							CHANNELS 3 Zrotation Yrotation Xrotation
							End Site
							{
								OFFSET 0.000000 0.000000 0.000000 
							}
						}
					}
				}
			}
		}
	}
}
MOTION
Frames: 7
Frame Time: 0.041667
10.568510 17.805398 49.586758 -178.887641 -15.062707 179.945368 -17.308943 -27.755697 -2.166152 -1.580659 9.556853 27.206803 -1.610847 7.344807 -2.558562 1.564900 -7.894000 -22.392600 26.646020 16.090387 -0.650730 1.824402 -9.012712 28.288509 6.142079 -24.400951 -24.559358 -0.469100 -4.392800 12.184500 3.772441 0.947329 2.484531 -4.570654 0.026805 -10.549900 3.966847 19.625213 14.118138 -1.148300 10.281200 5.726700 -90.605011 4.229736 25.435143 26.537655 -27.638222 -8.780662 2.840634 -0.342467 -4.101368 -7.125000 0.000000 0.000000 86.035292 -9.067025 34.325836 -23.624888 27.709553 -7.700599 0.061558 1.430460 -13.281514 7.125000 0.000000 0.000000 
10.580614 17.818808 49.571212 -178.683574 -14.798845 -179.634764 -16.692473 -27.140144 -2.923207 -1.593603 9.541109 27.102724 -1.638543 7.404838 -2.011210 1.676700 -8.157400 -23.193100 26.862634 16.518997 -0.804390 1.887833 -8.971517 28.055445 6.179738 -24.493220 -24.522553 -0.450200 -4.304800 11.935700 3.634534 1.245226 2.203158 -4.690029 0.159684 -10.296018 4.091256 19.480992 13.920826 -1.184700 10.228700 5.626600 -90.203402 4.750049 27.301667 26.077775 -27.000464 -8.396238 2.743548 -0.250520 -0.938864 -7.125000 0.000000 0.000000 86.439449 -9.479718 35.547536 -22.887234 26.780560 -7.250009 0.273396 1.449225 -8.390201 7.125000 0.000000 0.000000 
10.590108 17.830793 49.559583 -178.716137 -14.602568 -179.214201 -16.476008 -27.024334 -3.273207 -1.627151 9.501591 26.942114 -1.657031 7.451688 -1.870979 1.655700 -8.108800 -23.045000 26.782382 16.772459 -1.080915 1.910640 -8.977719 27.973497 6.213998 -24.527440 -24.428639 -0.440600 -4.259100 11.806700 3.382259 1.494825 1.938505 -4.740660 0.272917 -10.100644 4.155914 19.279536 14.068768 -1.211400 10.160500 5.689600 -89.886980 5.196190 28.888504 25.578435 -26.318932 -7.995834 2.645673 -0.062725 2.500530 -7.125000 0.000000 0.000000 86.800847 -9.980575 37.241114 -22.282973 25.964833 -6.855211 0.563648 1.407955 -4.721074 7.125000 0.000000 0.000000 
10.599364 17.841355 49.550801 -178.887974 -14.415582 -178.767323 -16.413103 -26.965913 -3.577743 -1.658699 9.472411 26.812297 -1.608486 7.354728 -1.908302 1.607300 -7.995200 -22.699500 26.558564 17.118787 -1.303514 1.945235 -8.960654 27.835240 6.262320 -24.591261 -24.365072 -0.435700 -4.235800 11.741100 3.049169 1.729594 1.672562 -4.751932 0.386880 -9.921084 4.140682 19.065327 14.210567 -1.272600 10.083300 5.758400 -89.560255 5.662928 30.449408 25.156694 -25.735944 -7.673598 2.522590 0.181735 5.891227 -7.125000 0.000000 0.000000 87.151175 -10.526400 38.375403 -21.896250 25.420022 -6.601312 0.767976 1.314298 -0.125347 7.125000 0.000000 0.000000 
10.611349 17.849424 49.542494 -178.948170 -14.230230 -178.355424 -16.226387 -26.905900 -3.901183 -1.687401 9.441811 26.678732 -1.606592 7.360790 -1.880357 1.678900 -8.162400 -23.208600 26.495723 17.542442 -1.491611 1.975907 -8.960531 27.739446 6.323206 -24.756276 -24.416654 -0.430700 -4.211500 11.672500 2.760207 1.983638 1.392847 -4.779873 0.505664 -9.747427 4.086980 18.852597 14.242601 -1.360000 10.000400 5.782800 -89.163688 6.100362 32.095465 24.742049 -25.163067 -7.377083 2.340894 0.450689 9.285529 -7.125000 0.000000 0.000000 87.543632 -11.180905 40.159224 -21.515145 24.853311 -6.346874 1.046350 1.123639 3.858035 7.125000 0.000000 0.000000 
10.633778 17.865088 49.522558 -178.977461 -13.887444 -177.624954 -15.822122 -26.731727 -4.562977 -1.714803 9.426249 26.543113 -1.695562 7.577927 -1.847821 2.013000 -8.893100 -25.461500 26.442882 18.154883 -1.889797 2.018666 -8.969223 27.587363 6.455028 -25.050858 -24.341406 -0.391600 -4.018200 11.127900 2.239705 2.461032 0.867139 -4.840777 0.727927 -9.391840 3.888891 18.463016 14.193281 -1.585200 9.845300 5.793400 -88.375862 6.998643 35.313255 24.040204 -24.168607 -6.890937 1.812867 0.969669 15.935396 -7.125000 0.000000 0.000000 88.323308 -12.207974 42.598832 -20.859790 23.981097 -6.071880 1.351811 0.731727 12.579840 7.125000 0.000000 0.000000 
10.635321 17.864139 49.522677 -178.974950 -13.897259 -177.616803 -15.822746 -26.781880 -4.552848 -1.712005 9.427135 26.548833 -1.680463 7.542673 -1.836421 2.172900 -9.217300 -26.477400 26.413370 18.047951 -1.922852 2.028636 -8.946855 27.508442 6.524354 -25.148363 -24.163125 -0.359100 -3.849700 10.654300 2.356390 2.426670 0.823252 -4.781175 0.716762 -9.409339 3.887922 18.547730 14.071353 -1.587300 9.876600 5.721000 -88.468495 7.137772 35.397873 24.036120 -24.150642 -6.883819 1.782004 0.992712 16.174553 -7.125000 0.000000 0.000000 88.164284 -12.289061 42.874062 -20.876204 23.992345 -6.073098 1.362870 0.723388 11.750664 7.125000 0.000000 0.000000 
